<svg width="21" height="21" viewBox="0 0 21 21" fill="none" xmlns="http://www.w3.org/2000/svg">
<path d="M20.7094 19.2894L16.9994 15.6094C18.4395 13.8138 19.1369 11.5347 18.9482 9.24072C18.7595 6.94672 17.6991 4.8122 15.9849 3.27606C14.2708 1.73992 12.0332 0.918926 9.73234 0.981887C7.43145 1.04485 5.24214 1.98698 3.61456 3.61456C1.98698 5.24214 1.04485 7.43145 0.981887 9.73234C0.918926 12.0332 1.73992 14.2708 3.27606 15.9849C4.8122 17.6991 6.94672 18.7595 9.24072 18.9482C11.5347 19.1369 13.8138 18.4395 15.6094 16.9994L19.2894 20.6794C19.3824 20.7731 19.493 20.8475 19.6148 20.8983C19.7367 20.9491 19.8674 20.9752 19.9994 20.9752C20.1314 20.9752 20.2621 20.9491 20.384 20.8983C20.5059 20.8475 20.6165 20.7731 20.7094 20.6794C20.8897 20.493 20.9904 20.2438 20.9904 19.9844C20.9904 19.7251 20.8897 19.4759 20.7094 19.2894ZM9.99942 16.9994C8.61495 16.9994 7.26157 16.5889 6.11042 15.8197C4.95928 15.0505 4.06207 13.9573 3.53226 12.6782C3.00245 11.3991 2.86382 9.99165 3.13392 8.63378C3.40402 7.27592 4.0707 6.02864 5.04967 5.04967C6.02864 4.0707 7.27592 3.40402 8.63378 3.13392C9.99165 2.86382 11.3991 3.00245 12.6782 3.53226C13.9573 4.06207 15.0505 4.95928 15.8197 6.11042C16.5889 7.26157 16.9994 8.61495 16.9994 9.99942C16.9994 11.8559 16.2619 13.6364 14.9492 14.9492C13.6364 16.2619 11.8559 16.9994 9.99942 16.9994Z" fill="white"/>
</svg>
